<svg xmlns="http://www.w3.org/2000/svg" viewBox="0 0 600 320" width="600" height="320" font-family="system-ui, -apple-system, sans-serif">
  <rect width="600" height="320" fill="white" rx="8"/>
  <text x="300.0" y="24" text-anchor="middle" font-size="16" font-weight="600" fill="#111827">Output Tokens (work performed)</text>
  
    <rect x="70" y="35" width="12" height="12" fill="#6b7280" rx="2"/>
    <text x="86" y="45" font-size="11" fill="#374151">Control</text>
    <rect x="150" y="35" width="12" height="12" fill="#0f766e" rx="2"/>
    <text x="166" y="45" font-size="11" fill="#0f766e">Lavra</text>
    
  <line x1="70" y1="260.0" x2="580" y2="260.0" stroke="#e5e7eb" stroke-width="1"/>
<text x="62" y="264.0" text-anchor="end" font-size="11" fill="#6b7280">0</text>
<line x1="70" y1="218.0" x2="580" y2="218.0" stroke="#e5e7eb" stroke-width="1"/>
<text x="62" y="222.0" text-anchor="end" font-size="11" fill="#6b7280">3667</text>
<line x1="70" y1="176.0" x2="580" y2="176.0" stroke="#e5e7eb" stroke-width="1"/>
<text x="62" y="180.0" text-anchor="end" font-size="11" fill="#6b7280">7334</text>
<line x1="70" y1="134.0" x2="580" y2="134.0" stroke="#e5e7eb" stroke-width="1"/>
<text x="62" y="138.0" text-anchor="end" font-size="11" fill="#6b7280">11001</text>
<line x1="70" y1="92.0" x2="580" y2="92.0" stroke="#e5e7eb" stroke-width="1"/>
<text x="62" y="96.0" text-anchor="end" font-size="11" fill="#6b7280">14668</text>
<line x1="70" y1="50.0" x2="580" y2="50.0" stroke="#e5e7eb" stroke-width="1"/>
<text x="62" y="54.0" text-anchor="end" font-size="11" fill="#6b7280">18334</text>

  <rect x="82.8" y="177.3" width="89.2" height="82.7" fill="#6b7280" rx="3"/>
<text x="127.4" y="172.3" text-anchor="middle" font-size="11" fill="#374151">7217.0</text>
<rect x="184.8" y="162.8" width="89.2" height="97.2" fill="#0f766e" rx="3"/>
<text x="229.4" y="157.8" text-anchor="middle" font-size="11" fill="#0f766e">8487.0</text>
<text x="197.5" y="280.0" text-anchor="middle" font-size="12" fill="#374151">Session 1</text>
<rect x="337.8" y="202.9" width="89.2" height="57.1" fill="#6b7280" rx="3"/>
<text x="382.4" y="197.9" text-anchor="middle" font-size="11" fill="#374151">4985.0</text>
<rect x="439.8" y="77.4" width="89.2" height="182.6" fill="#0f766e" rx="3"/>
<text x="484.4" y="72.4" text-anchor="middle" font-size="11" fill="#0f766e">15943.0</text>
<text x="452.5" y="280.0" text-anchor="middle" font-size="12" fill="#374151">Session 2</text>

</svg>